# xmcd
#
# Track frame offsets:
# 182
# 14482
# 28885
# 54075
# 68580
# 83812
# 100267
# 113755
# 134357
# 151952
# 168802
# 181812
# 194905
# 210220
#
# Disc length: 3029 seconds
#
# Revision: 4
# Processed by: cddbd v1.4PL0 Copyright (c) Steve Scherf et al.
# Submitted via: Axialis_AX_CDPlayer 2.6
#
DISCID=b00bd30e
DTITLE=Rainer And Das Combo - Barefoot Rock With...
DYEAR=1900
DGENRE=
TTITLE0=Mellow Down Easy ( For Chester)
TTITLE1=The Unseen Enemy
TTITLE2=Life Is Fine
TTITLE3=Barefoot Rock
TTITLE4=Sleepwalk
TTITLE5=Around And Around
TTITLE6=That´s How Things Get Done
TTITLE7=Broken Promises
TTITLE8=I Am A Sinner
TTITLE9=If I Had Possesion Over Judgement Day
TTITLE10=Where´s That At
TTITLE11=The Last Fair Deal
TTITLE12=How I Wanted You
TTITLE13=I Wish You Would
EXTD='This is a re-release and remix of "Barefoot Rock With Rainer and Das 
EXTD=\nCombo" (1986 Making Waves Ltd. out of print) plus four new selections
EXTD='
EXTT0=
EXTT1=
EXTT2=
EXTT3=
EXTT4=
EXTT5=
EXTT6=
EXTT7=
EXTT8=
EXTT9=
EXTT10=
EXTT11=
EXTT12=
EXTT13=
PLAYORDER=
